<svg xmlns="http://www.w3.org/2000/svg" viewBox="0 0 1600 1000" role="img" aria-labelledby="title desc">
  <title id="title">Landscape photograph placeholder</title>
  <desc id="desc">An abstract twilight mountain and lake scene awaiting a personal photograph.</desc>
  <defs>
    <linearGradient id="sky" x1="0" y1="0" x2="0" y2="1">
      <stop offset="0" stop-color="#101c33"/>
      <stop offset="0.58" stop-color="#6f5361"/>
      <stop offset="1" stop-color="#de9f72"/>
    </linearGradient>
    <linearGradient id="water" x1="0" y1="0" x2="1" y2="1">
      <stop stop-color="#122a3e"/>
      <stop offset="1" stop-color="#315366"/>
    </linearGradient>
  </defs>
  <rect width="1600" height="1000" fill="url(#sky)"/>
  <circle cx="1250" cy="250" r="68" fill="#f5d9ad" opacity=".88"/>
  <path d="M0 650 270 375l180 210 185-265 250 330 185-205 220 205 180-255 150 195v410H0Z" fill="#172735"/>
  <path d="M0 700c320-70 540 35 810-10 255-43 492-10 790 45v265H0Z" fill="url(#water)"/>
  <path d="M0 780c340-55 550 60 810 8 285-58 505-4 790 40" fill="none" stroke="#d9c6a4" stroke-width="5" opacity=".24"/>
  <text x="80" y="900" fill="#f5eadb" font-family="Arial, sans-serif" font-size="36" letter-spacing="7">YOUR LANDSCAPE MEMORY</text>
</svg>
